<svg width="19" height="20" viewBox="0 0 19 20" fill="none" xmlns="http://www.w3.org/2000/svg">
<path d="M11.854 13.0353L7.94613 10.5922C8.01787 10.2006 8.01787 9.79915 7.94613 9.40753L11.8567 6.96273C12.3602 7.44894 12.9962 7.78137 13.6897 7.91487C14.5305 8.07672 15.4013 7.93577 16.1481 7.51701C16.8948 7.09824 17.4692 6.42869 17.7696 5.62695C18.07 4.82521 18.0768 3.94304 17.7891 3.13671C17.5013 2.33037 16.9374 1.65193 16.1973 1.22154C15.4571 0.791164 14.5886 0.636629 13.7454 0.785316C12.9023 0.934004 12.139 1.37632 11.5907 2.0339C11.0425 2.69148 10.7447 3.52189 10.7501 4.37803L10.7501 4.38016C10.7522 4.57692 10.7709 4.77291 10.8058 4.96607L6.89609 7.41034C6.46989 6.99284 5.9454 6.68527 5.36788 6.518C4.64535 6.30872 3.87562 6.3294 3.16537 6.57717C2.45513 6.82494 1.83955 7.28752 1.40397 7.90079C0.968384 8.51407 0.734375 9.24766 0.734375 9.99988C0.734375 10.7521 0.968384 11.4857 1.40397 12.099C1.83955 12.7123 2.45513 13.1748 3.16537 13.4226C3.87562 13.6704 4.64535 13.691 5.36788 13.4818C5.9454 13.3145 6.46989 13.0069 6.89609 12.5894L10.8058 15.0337C10.7709 15.2269 10.7522 15.4229 10.7501 15.6196L10.7501 15.6196V15.6249C10.7501 16.3418 10.9627 17.0427 11.361 17.6388C11.7593 18.235 12.3254 18.6996 12.9878 18.9739C13.6502 19.2483 14.3791 19.3201 15.0823 19.1802C15.7854 19.0404 16.4314 18.6951 16.9383 18.1881C17.4453 17.6812 17.7905 17.0353 17.9304 16.3321C18.0703 15.6289 17.9985 14.9 17.7241 14.2377C17.4498 13.5753 16.9851 13.0091 16.389 12.6108C15.7929 12.2125 15.092 11.9999 14.3751 11.9999V12.4998L14.3725 11.9999C13.8299 12.0026 13.2947 12.1272 12.8066 12.3643C12.4541 12.5356 12.1326 12.7624 11.854 13.0353ZM14.3751 2.99988C14.647 2.99988 14.9128 3.08053 15.139 3.23161C15.3651 3.3827 15.5413 3.59745 15.6454 3.84869C15.7495 4.09994 15.7767 4.37641 15.7236 4.64313C15.6706 4.90986 15.5396 5.15486 15.3473 5.34716C15.155 5.53945 14.91 5.67041 14.6433 5.72346C14.3766 5.77652 14.1001 5.74929 13.8489 5.64522C13.5976 5.54115 13.3829 5.36491 13.2318 5.13879C13.0807 4.91268 13.0001 4.64683 13.0001 4.37488C13.0001 4.01021 13.1449 3.66047 13.4028 3.40261C13.6606 3.14475 14.0104 2.99988 14.3751 2.99988ZM4.37505 11.3749C4.1031 11.3749 3.83726 11.2942 3.61114 11.1432C3.38503 10.9921 3.20879 10.7773 3.10472 10.5261C3.00065 10.2748 2.97342 9.99836 3.02647 9.73164C3.07953 9.46491 3.21049 9.21991 3.40278 9.02761C3.59508 8.83531 3.84008 8.70436 4.10681 8.6513C4.37353 8.59825 4.65 8.62548 4.90124 8.72955C5.15249 8.83362 5.36724 9.00986 5.51832 9.23598C5.66941 9.46209 5.75005 9.72793 5.75005 9.99988C5.75005 10.3646 5.60519 10.7143 5.34733 10.9722C5.08946 11.23 4.73973 11.3749 4.37505 11.3749ZM14.3751 16.9999C14.1031 16.9999 13.8373 16.9192 13.6111 16.7682C13.385 16.6171 13.2088 16.4023 13.1047 16.1511C13.0006 15.8998 12.9734 15.6234 13.0265 15.3566C13.0795 15.0899 13.2105 14.8449 13.4028 14.6526C13.5951 14.4603 13.8401 14.3294 14.1068 14.2763C14.3735 14.2233 14.65 14.2505 14.9012 14.3546C15.1525 14.4586 15.3672 14.6349 15.5183 14.861C15.6694 15.0871 15.7501 15.3529 15.7501 15.6249C15.7501 15.9896 15.6052 16.3393 15.3473 16.5972C15.0895 16.855 14.7397 16.9999 14.3751 16.9999Z" fill="#6079D1" stroke="#1E1E1E"/>
</svg>
